<svg width="812" height="377" viewBox="0 0 812 377" fill="none" xmlns="http://www.w3.org/2000/svg">
<rect width="812" height="377" fill="white"/>
<path d="M386.285 187.992C386.285 92.4538 308.69 15 212.977 15C117.263 15 39.668 92.4538 39.668 187.992C39.668 283.531 117.263 360.984 212.977 360.984C308.69 360.984 386.285 283.531 386.285 187.992Z" fill="#402B25"/>
<path d="M366.07 187.992C366.07 103.597 297.526 35.1777 212.977 35.1777C128.427 35.1777 59.8828 103.597 59.8828 187.992C59.8828 272.387 128.427 340.806 212.977 340.806C297.526 340.806 366.07 272.387 366.07 187.992Z" fill="#C4D7DB"/>
<mask id="mask0_691_5814" style="mask-type:luminance" maskUnits="userSpaceOnUse" x="59" y="35" width="308" height="306">
<path d="M59.8828 187.992C59.8828 272.387 128.427 340.806 212.977 340.806C297.526 340.806 366.07 272.387 366.07 187.992C366.07 103.597 297.526 35.1777 212.977 35.1777C128.427 35.1777 59.8828 103.597 59.8828 187.992Z" fill="white"/>
</mask>
<g mask="url(#mask0_691_5814)">
<mask id="mask1_691_5814" style="mask-type:luminance" maskUnits="userSpaceOnUse" x="12" y="50" width="293" height="292">
<path d="M304.749 50.5864H12.8633V341.923H304.749V50.5864Z" fill="white"/>
</mask>
<g mask="url(#mask1_691_5814)">
<mask id="mask2_691_5814" style="mask-type:luminance" maskUnits="userSpaceOnUse" x="12" y="50" width="293" height="292">
<path d="M304.749 50.5864H12.8633V341.923H304.749V50.5864Z" fill="white"/>
</mask>
<g mask="url(#mask2_691_5814)">
<mask id="mask3_691_5814" style="mask-type:luminance" maskUnits="userSpaceOnUse" x="12" y="50" width="293" height="292">
<path d="M304.749 50.5864H12.8633V341.923H304.749V50.5864Z" fill="white"/>
</mask>
<g mask="url(#mask3_691_5814)">
<path d="M12.8633 50.5864L116.855 154.404L33.4566 158.008C17.3257 99.961 12.8633 50.5864 12.8633 50.5864Z" fill="#0B692F"/>
<path d="M116.855 154.404L12.8633 50.5864C12.8633 50.5864 61.3348 54.962 118.763 70.6699L118.573 71.331L117.943 154.357L116.871 154.388L116.855 154.404Z" fill="#88BA80"/>
</g>
<path d="M118.558 71.331L118.748 70.6699C139.656 76.3991 161.732 83.6235 183.082 92.6736L182.609 93.7754L181.631 216.134L178.84 216.26L116.855 154.388L117.928 154.356L118.558 71.331Z" fill="#88BA80"/>
<path d="M182.624 93.7912L183.097 92.6895C206.292 102.511 228.652 114.504 247.684 129.142L247.4 129.52L246.233 279.406L242.244 279.564L178.855 216.291L181.646 216.165L182.624 93.807V93.7912Z" fill="#88BA80"/>
<mask id="mask4_691_5814" style="mask-type:luminance" maskUnits="userSpaceOnUse" x="12" y="50" width="293" height="292">
<path d="M304.749 50.5864H12.8633V341.923H304.749V50.5864Z" fill="white"/>
</mask>
<g mask="url(#mask4_691_5814)">
<path d="M247.399 129.504L247.682 129.126C254.321 134.163 260.533 139.545 266.242 145.243C345.272 224.129 278.131 315.386 278.131 315.386C278.131 315.386 278.005 315.481 277.721 315.67L277.563 314.82L242.227 279.548L246.232 279.39L247.399 129.504Z" fill="#74B844"/>
</g>
<path d="M33.4414 158.008L116.84 154.404L178.824 216.276L55.4854 221.564C46.4187 200.505 39.2126 178.721 33.4414 158.008Z" fill="#0B692F"/>
<path d="M55.5 221.564L178.839 216.275L242.227 279.548L92.303 285.97C77.544 267.035 65.434 244.748 55.5 221.564Z" fill="#0B692F"/>
<mask id="mask5_691_5814" style="mask-type:luminance" maskUnits="userSpaceOnUse" x="12" y="50" width="293" height="292">
<path d="M304.749 50.5864H12.8633V341.923H304.749V50.5864Z" fill="white"/>
</mask>
<g mask="url(#mask5_691_5814)">
<path d="M92.3048 285.97L242.229 279.548L277.566 314.82L277.723 315.67C270.959 320.423 183.587 379.289 107.679 303.472C102.255 298.057 97.1141 292.202 92.2891 285.954" fill="#0B692F"/>
</g>
</g>
</g>
<path d="M247.684 129.126C254.306 134.163 260.535 139.546 266.243 145.243C345.273 224.129 278.132 315.387 278.132 315.387C278.132 315.387 278.006 315.481 277.722 315.67C270.958 320.423 183.602 379.289 107.678 303.472C102.253 298.058 97.1129 292.202 92.2878 285.954C77.5446 267.019 65.4188 244.717 55.4848 221.548C46.4181 200.489 39.212 178.705 33.4408 157.992C17.3257 99.961 12.8633 50.5864 12.8633 50.5864C12.8633 50.5864 61.3348 54.962 118.763 70.6699C139.671 76.3991 161.747 83.6235 183.097 92.6737C206.292 102.495 228.651 114.489 247.684 129.126Z" stroke="#402B25" stroke-width="4.43" stroke-miterlimit="10"/>
<path d="M12.8633 50.5864L116.855 154.404L178.84 216.275L242.228 279.548L277.565 314.82" stroke="#402B25" stroke-width="4.43" stroke-miterlimit="10"/>
<path d="M30.2383 158.134L33.4392 158.008L116.853 154.404L117.925 154.372L118.556 71.3311" stroke="#402B25" stroke-width="4.43" stroke-miterlimit="10"/>
<path d="M52.3945 221.69L55.5009 221.564L178.84 216.275L181.631 216.149L182.624 93.791" stroke="#402B25" stroke-width="4.43" stroke-miterlimit="10"/>
<path d="M87.9531 286.158L92.3052 285.97L242.229 279.548L246.235 279.391L247.401 129.504" stroke="#402B25" stroke-width="4.43" stroke-miterlimit="10"/>
<mask id="mask6_691_5814" style="mask-type:luminance" maskUnits="userSpaceOnUse" x="259" y="80" width="116" height="116">
<path d="M374.934 80.8535H259.195V195.72H374.934V80.8535Z" fill="white"/>
</mask>
<g mask="url(#mask6_691_5814)">
<mask id="mask7_691_5814" style="mask-type:luminance" maskUnits="userSpaceOnUse" x="259" y="80" width="116" height="116">
<path d="M374.934 80.8535H259.195V195.72H374.934V80.8535Z" fill="white"/>
</mask>
<g mask="url(#mask7_691_5814)">
<mask id="mask8_691_5814" style="mask-type:luminance" maskUnits="userSpaceOnUse" x="259" y="80" width="116" height="116">
<path d="M374.934 80.8535H259.195V195.72H374.934V80.8535Z" fill="white"/>
</mask>
<g mask="url(#mask8_691_5814)">
<path d="M361.248 96.1207C381.888 117.668 378.829 154.01 354.436 177.289C334.82 196.019 307.384 200.583 286.664 190.479L358.063 93.083C359.166 94.0431 360.223 95.0347 361.248 96.105" fill="#67472F"/>
</g>
<path d="M358.852 92.0127L358.064 93.0987C357.859 92.9098 357.67 92.7524 357.465 92.5951C357.922 92.4062 358.395 92.2016 358.852 92.0127Z" fill="#926F49"/>
<path d="M358.064 93.0989L286.665 190.495C286.665 190.495 286.586 190.479 286.555 190.447C303.206 161.975 300.762 139.656 322.254 116.126C331.999 105.454 344.771 97.8994 357.48 92.5952C357.685 92.7526 357.874 92.9257 358.079 93.0989" fill="#67472F"/>
<mask id="mask9_691_5814" style="mask-type:luminance" maskUnits="userSpaceOnUse" x="259" y="80" width="116" height="116">
<path d="M374.934 80.8535H259.195V195.72H374.934V80.8535Z" fill="white"/>
</mask>
<g mask="url(#mask9_691_5814)">
<path d="M357.464 92.5788C344.755 97.883 331.983 105.438 322.238 116.109C300.746 139.64 303.19 161.958 286.539 190.431C281.509 187.975 276.889 184.654 272.884 180.452C252.243 158.905 255.302 122.562 279.695 99.2838C302.685 77.3587 336.382 74.8247 357.464 92.5788Z" fill="#926F49"/>
</g>
<path d="M286.663 190.494L285.938 191.486C286.158 191.14 286.347 190.794 286.552 190.447C286.584 190.479 286.616 190.494 286.663 190.494Z" fill="#926F49"/>
</g>
</g>
<path d="M286.535 190.447C281.505 187.992 276.885 184.671 272.88 180.468C252.239 158.937 255.298 122.579 279.691 99.2999C302.682 77.3749 336.378 74.8408 357.46 92.5949" stroke="#402B25" stroke-width="4.43" stroke-miterlimit="10"/>
<path d="M358.063 93.0986C359.166 94.0587 360.223 95.0661 361.248 96.1363C381.888 117.684 378.829 154.026 354.436 177.305C334.82 196.035 307.384 200.615 286.664 190.494" stroke="#402B25" stroke-width="4.43" stroke-miterlimit="10"/>
<path d="M358.85 92.0127C358.393 92.2016 357.92 92.3904 357.462 92.5951C344.753 97.8992 331.981 105.454 322.236 116.126C300.744 139.656 303.188 161.974 286.537 190.447C286.332 190.793 286.143 191.14 285.922 191.486" stroke="#402B25" stroke-width="4.43" stroke-miterlimit="10"/>
<mask id="mask10_691_5814" style="mask-type:luminance" maskUnits="userSpaceOnUse" x="96" y="109" width="240" height="238">
<path d="M335.388 109.704H96.9883V346.881H335.388V109.704Z" fill="white"/>
</mask>
<g mask="url(#mask10_691_5814)">
<mask id="mask11_691_5814" style="mask-type:luminance" maskUnits="userSpaceOnUse" x="96" y="109" width="240" height="238">
<path d="M335.388 109.704H96.9883V346.881H335.388V109.704Z" fill="white"/>
</mask>
<g mask="url(#mask11_691_5814)">
<mask id="mask12_691_5814" style="mask-type:luminance" maskUnits="userSpaceOnUse" x="96" y="109" width="240" height="238">
<path d="M335.388 109.704H96.9883V346.881H335.388V109.704Z" fill="white"/>
</mask>
<g mask="url(#mask12_691_5814)">
<path d="M327.551 146.172C332.613 162.572 335.372 180.374 335.372 198.994C335.372 280.665 281.997 346.881 216.18 346.881C150.364 346.881 96.9883 280.65 96.9883 198.978C96.9883 180.515 99.732 162.84 104.715 146.565C104.494 147.557 104.384 148.58 104.384 149.635C104.384 155.867 108.404 161.77 115.563 167.058C116.131 167.467 116.714 167.908 117.329 168.286C117.944 168.695 118.559 169.104 119.19 169.514C120.546 170.363 121.981 171.166 123.463 171.969C124.409 172.457 125.387 172.945 126.38 173.433C130.985 175.652 136.235 177.698 141.991 179.508C142.905 179.823 143.851 180.09 144.798 180.374C144.971 180.421 145.16 180.484 145.334 180.531C146.642 180.909 147.935 181.302 149.307 181.633C150.458 181.963 151.641 182.278 152.839 182.546C154.148 182.876 155.504 183.191 156.86 183.49C157.68 183.663 158.532 183.852 159.367 184.025C162.253 184.639 165.233 185.206 168.292 185.709C169.727 185.961 171.178 186.197 172.66 186.433C174.316 186.685 176.034 186.921 177.753 187.142C180.497 187.504 183.288 187.834 186.126 188.118C187.766 188.275 189.422 188.417 191.093 188.543C193.758 188.779 196.439 188.952 199.182 189.109C200.743 189.188 202.32 189.267 203.913 189.345C204.196 189.345 204.48 189.377 204.764 189.377C206.436 189.424 208.139 189.487 209.826 189.503C211.923 189.55 214.052 189.581 216.196 189.581C218.341 189.581 220.469 189.55 222.566 189.503C224.254 189.471 225.972 189.424 227.628 189.377C227.912 189.377 228.196 189.345 228.464 189.345C230.056 189.267 231.633 189.188 233.194 189.109C235.938 188.952 238.619 188.779 241.283 188.543C242.939 188.417 244.61 188.259 246.25 188.118C249.089 187.834 251.88 187.504 254.623 187.142C256.342 186.906 258.045 186.685 259.716 186.433C261.199 186.197 262.665 185.977 264.084 185.709C267.159 185.206 270.123 184.639 273.009 184.025C273.845 183.852 274.696 183.663 275.516 183.49C276.872 183.175 278.228 182.876 279.537 182.546C280.735 182.263 281.918 181.963 283.069 181.633C284.425 181.302 285.734 180.925 287.027 180.531C287.2 180.484 287.39 180.421 287.563 180.374C288.509 180.09 289.455 179.807 290.37 179.508C296.125 177.698 301.376 175.652 305.98 173.433C306.974 172.945 307.951 172.457 308.898 171.969C310.38 171.182 311.815 170.363 313.171 169.514C313.817 169.104 314.416 168.695 315.031 168.286C315.646 167.908 316.23 167.467 316.797 167.058C323.956 161.77 327.977 155.867 327.977 149.635C327.977 148.454 327.819 147.305 327.536 146.156" fill="#F6B56A"/>
<path d="M104.73 146.471C109.255 125.884 157.427 109.704 216.18 109.704C274.932 109.704 322.647 125.742 327.551 146.172C327.835 147.321 327.992 148.47 327.992 149.65C327.992 155.883 323.971 161.785 316.813 167.074C298.695 153.743 260.441 144.551 216.18 144.551C171.918 144.551 133.665 153.743 115.547 167.074C108.388 161.785 104.367 155.883 104.367 149.65C104.367 148.596 104.478 147.588 104.698 146.581C104.698 146.55 104.698 146.502 104.73 146.471Z" fill="#FFA601"/>
</g>
<path d="M316.812 167.058C316.245 167.468 315.661 167.908 315.046 168.286C314.463 168.695 313.816 169.104 313.186 169.514C311.83 170.364 310.395 171.166 308.913 171.969C307.966 172.457 306.989 172.945 305.995 173.417C301.391 175.636 296.14 177.682 290.385 179.492C289.47 179.807 288.524 180.075 287.578 180.358C287.405 180.405 287.215 180.453 287.042 180.516C285.733 180.893 284.424 181.255 283.068 181.617C281.917 181.948 280.735 182.231 279.536 182.53C278.228 182.861 276.871 183.16 275.515 183.475C274.695 183.648 273.86 183.837 273.008 184.01C270.123 184.623 267.142 185.19 264.083 185.694C262.649 185.946 261.198 186.182 259.716 186.402C258.028 186.654 256.341 186.89 254.623 187.11C251.879 187.472 249.104 187.803 246.265 188.086C244.625 188.244 242.97 188.385 241.298 188.527C238.634 188.763 235.953 188.936 233.209 189.093C231.648 189.172 230.056 189.251 228.479 189.33C228.195 189.33 227.911 189.361 227.627 189.361C225.94 189.408 224.253 189.471 222.566 189.487C220.469 189.534 218.34 189.566 216.195 189.566C214.051 189.566 211.922 189.534 209.825 189.487C208.138 189.455 206.451 189.408 204.763 189.361C204.48 189.361 204.196 189.33 203.912 189.33C202.319 189.251 200.742 189.172 199.181 189.093C196.438 188.936 193.757 188.763 191.092 188.527C189.437 188.401 187.765 188.244 186.125 188.086C183.287 187.803 180.496 187.472 177.768 187.11C176.049 186.874 174.362 186.654 172.675 186.402C171.193 186.166 169.726 185.946 168.307 185.694C165.232 185.19 162.268 184.623 159.382 184.01C158.547 183.837 157.695 183.648 156.875 183.475C155.519 183.16 154.163 182.861 152.854 182.53C151.656 182.215 150.473 181.948 149.322 181.617C147.966 181.255 146.657 180.893 145.349 180.516C145.175 180.468 144.986 180.405 144.813 180.358C143.866 180.075 142.92 179.791 141.99 179.492C136.235 177.682 130.984 175.636 126.38 173.417C125.386 172.929 124.408 172.441 123.462 171.969C121.98 171.182 120.545 170.364 119.189 169.514C118.543 169.104 117.912 168.695 117.329 168.286C116.714 167.908 116.13 167.468 115.562 167.058C133.68 153.727 171.918 144.535 216.195 144.535C260.473 144.535 298.71 153.727 316.828 167.058" fill="#7A401A"/>
</g>
</g>
<path d="M316.813 167.058C298.695 153.727 260.441 144.535 216.18 144.535C171.918 144.535 133.665 153.727 115.547 167.058" stroke="#402B25" stroke-width="4.43" stroke-miterlimit="10"/>
<path d="M313.168 169.514C313.814 169.105 314.445 168.695 315.029 168.286" stroke="#402B25" stroke-width="4.43" stroke-miterlimit="10"/>
<path d="M305.98 173.417C306.974 172.929 307.952 172.441 308.898 171.969" stroke="#402B25" stroke-width="4.43" stroke-miterlimit="10"/>
<path d="M287.562 180.358C288.509 180.075 289.455 179.791 290.369 179.492" stroke="#402B25" stroke-width="4.43" stroke-miterlimit="10"/>
<path d="M279.535 182.53C280.734 182.247 281.916 181.948 283.067 181.617C284.423 181.287 285.732 180.909 287.041 180.516" stroke="#402B25" stroke-width="4.43" stroke-miterlimit="10"/>
<path d="M273.008 184.01C273.844 183.837 274.695 183.648 275.515 183.475" stroke="#402B25" stroke-width="4.43" stroke-miterlimit="10"/>
<path d="M254.605 187.126C256.324 186.89 258.027 186.67 259.699 186.418C261.181 186.182 262.647 185.961 264.066 185.694" stroke="#402B25" stroke-width="4.43" stroke-miterlimit="10"/>
<path d="M241.281 188.543C242.937 188.417 244.608 188.259 246.248 188.102" stroke="#402B25" stroke-width="4.43" stroke-miterlimit="10"/>
<path d="M228.461 189.329C230.054 189.251 231.63 189.172 233.191 189.093" stroke="#402B25" stroke-width="4.43" stroke-miterlimit="10"/>
<path d="M222.551 189.487C224.238 189.455 225.957 189.408 227.612 189.361" stroke="#402B25" stroke-width="4.43" stroke-miterlimit="10"/>
<path d="M204.746 189.345C206.402 189.392 208.12 189.455 209.808 189.471" stroke="#402B25" stroke-width="4.43" stroke-miterlimit="10"/>
<path d="M199.164 189.093C200.725 189.172 202.318 189.251 203.895 189.329" stroke="#402B25" stroke-width="4.43" stroke-miterlimit="10"/>
<path d="M186.125 188.102C187.765 188.259 189.421 188.417 191.092 188.543" stroke="#402B25" stroke-width="4.43" stroke-miterlimit="10"/>
<path d="M168.289 185.694C169.724 185.946 171.175 186.182 172.657 186.402C174.313 186.654 176.031 186.89 177.75 187.126" stroke="#402B25" stroke-width="4.43" stroke-miterlimit="10"/>
<path d="M156.859 183.475C157.679 183.648 158.515 183.837 159.367 184.01" stroke="#402B25" stroke-width="4.43" stroke-miterlimit="10"/>
<path d="M145.332 180.516C146.641 180.893 147.934 181.287 149.29 181.617C150.441 181.948 151.624 182.247 152.822 182.53" stroke="#402B25" stroke-width="4.43" stroke-miterlimit="10"/>
<path d="M141.988 179.492C142.903 179.807 143.849 180.075 144.795 180.358" stroke="#402B25" stroke-width="4.43" stroke-miterlimit="10"/>
<path d="M123.461 171.969C124.407 172.457 125.385 172.945 126.378 173.433" stroke="#402B25" stroke-width="4.43" stroke-miterlimit="10"/>
<path d="M117.328 168.286C117.912 168.695 118.558 169.105 119.189 169.514" stroke="#402B25" stroke-width="4.43" stroke-miterlimit="10"/>
<path d="M104.73 146.471C109.255 125.884 157.427 109.704 216.179 109.704C274.932 109.704 322.646 125.742 327.55 146.172C327.834 147.321 327.992 148.47 327.992 149.65C327.992 155.883 323.971 161.785 316.812 167.074C316.245 167.483 315.661 167.924 315.046 168.302C314.431 168.711 313.816 169.12 313.186 169.529C311.829 170.379 310.395 171.182 308.912 171.985C307.966 172.472 306.989 172.96 305.995 173.433C301.391 175.652 296.14 177.698 290.385 179.508C289.47 179.807 288.524 180.09 287.578 180.374C287.404 180.421 287.215 180.484 287.042 180.531C285.733 180.909 284.44 181.271 283.068 181.633C281.917 181.963 280.735 182.247 279.536 182.546C278.227 182.876 276.871 183.175 275.515 183.49C274.695 183.663 273.86 183.852 273.008 184.025C270.122 184.639 267.142 185.206 264.083 185.709C262.648 185.961 261.198 186.197 259.715 186.418C258.028 186.669 256.341 186.906 254.622 187.126C251.879 187.488 249.088 187.818 246.249 188.102C244.61 188.259 242.954 188.401 241.282 188.542C238.618 188.779 235.937 188.952 233.193 189.109C231.632 189.188 230.04 189.266 228.463 189.345C228.179 189.345 227.895 189.377 227.611 189.377C225.924 189.424 224.237 189.487 222.55 189.503C220.453 189.55 218.324 189.581 216.179 189.581C214.035 189.581 211.906 189.55 209.809 189.503C208.122 189.471 206.435 189.424 204.747 189.377C204.464 189.377 204.18 189.345 203.912 189.345C202.319 189.266 200.742 189.188 199.181 189.109C196.438 188.952 193.757 188.779 191.092 188.542C189.436 188.417 187.765 188.259 186.125 188.102C183.287 187.818 180.496 187.488 177.752 187.126C176.033 186.89 174.346 186.669 172.659 186.418C171.177 186.182 169.71 185.961 168.291 185.709C165.216 185.206 162.252 184.639 159.366 184.025C158.515 183.852 157.679 183.663 156.859 183.49C155.503 183.175 154.147 182.876 152.838 182.546C151.64 182.231 150.457 181.963 149.306 181.633C147.95 181.271 146.642 180.909 145.349 180.531C145.175 180.484 144.986 180.421 144.812 180.374C143.866 180.09 142.92 179.807 142.006 179.508C136.25 177.698 130.999 175.652 126.395 173.433C125.402 172.945 124.424 172.457 123.478 171.985C121.996 171.198 120.561 170.379 119.205 169.529C118.558 169.12 117.943 168.711 117.344 168.302C116.729 167.924 116.146 167.483 115.578 167.074C108.419 161.785 104.398 155.883 104.398 149.65C104.398 148.596 104.509 147.588 104.73 146.581" stroke="#402B25" stroke-width="4.43" stroke-miterlimit="10"/>
<path d="M105.33 144.566C105.125 145.212 104.92 145.841 104.746 146.487C104.715 146.518 104.715 146.565 104.715 146.597C99.732 162.871 96.9883 180.531 96.9883 199.009C96.9883 280.681 150.364 346.897 216.196 346.897C282.028 346.897 335.404 280.681 335.404 199.009C335.404 180.389 332.644 162.588 327.567 146.188" stroke="#402B25" stroke-width="4.43" stroke-miterlimit="10"/>
<mask id="mask13_691_5814" style="mask-type:luminance" maskUnits="userSpaceOnUse" x="196" y="174" width="176" height="175">
<path d="M371.558 174.723H196.988V348.959H371.558V174.723Z" fill="white"/>
</mask>
<g mask="url(#mask13_691_5814)">
<mask id="mask14_691_5814" style="mask-type:luminance" maskUnits="userSpaceOnUse" x="196" y="174" width="176" height="175">
<path d="M371.558 174.723H196.988V348.959H371.558V174.723Z" fill="white"/>
</mask>
<g mask="url(#mask14_691_5814)">
<mask id="mask15_691_5814" style="mask-type:luminance" maskUnits="userSpaceOnUse" x="196" y="174" width="176" height="175">
<path d="M371.558 174.723H196.988V348.959H371.558V174.723Z" fill="white"/>
</mask>
<g mask="url(#mask15_691_5814)">
<path d="M371.542 174.723L309.336 236.815L307.176 187.016C341.96 177.399 371.542 174.723 371.542 174.723Z" fill="#88BA80"/>
<path d="M309.352 236.799L371.541 174.723C371.541 174.723 368.924 203.668 359.51 237.948L359.116 237.838L309.367 237.445V236.815L309.352 236.799Z" fill="#0B692F"/>
</g>
<path d="M359.117 237.822L359.511 237.933C356.074 250.414 351.753 263.572 346.329 276.321L345.667 276.038L272.344 275.471L272.266 273.787L309.337 236.799V237.429L359.101 237.822H359.117Z" fill="#0B692F"/>
<path d="M345.667 276.038L346.329 276.321C340.448 290.188 333.242 303.519 324.49 314.899L324.27 314.725L234.47 314.017L234.375 311.625L272.282 273.771L272.361 275.456L345.683 276.022L345.667 276.038Z" fill="#0B692F"/>
<mask id="mask16_691_5814" style="mask-type:luminance" maskUnits="userSpaceOnUse" x="196" y="174" width="176" height="175">
<path d="M371.558 174.723H196.988V348.959H371.558V174.723Z" fill="white"/>
</mask>
<g mask="url(#mask16_691_5814)">
<path d="M324.255 314.741L324.476 314.914C321.464 318.849 318.232 322.564 314.826 325.979C267.569 373.15 212.884 333.093 212.884 333.093C212.884 333.093 212.821 333.015 212.711 332.842L213.231 332.731L234.376 311.656L234.471 314.049L324.271 314.741H324.255Z" fill="#0B692F"/>
</g>
<path d="M307.178 187.016L309.338 236.815L272.267 273.803L269.098 200.142C281.712 194.759 294.768 190.447 307.178 187.016Z" fill="#88BA80"/>
<path d="M269.097 200.142L272.266 273.803L234.359 311.656L230.512 222.13C241.865 213.3 255.221 206.076 269.112 200.142" fill="#88BA80"/>
<mask id="mask17_691_5814" style="mask-type:luminance" maskUnits="userSpaceOnUse" x="196" y="174" width="176" height="175">
<path d="M371.558 174.723H196.988V348.959H371.558V174.723Z" fill="white"/>
</mask>
<g mask="url(#mask17_691_5814)">
<path d="M230.51 222.131L234.358 311.656L213.212 332.731L212.692 332.842C209.854 328.812 174.58 276.652 219.993 231.307C223.241 228.064 226.742 224.995 230.479 222.115" fill="#88BA80"/>
</g>
</g>
</g>
<path d="M324.492 314.914C321.481 318.849 318.248 322.564 314.842 325.979C267.585 373.15 212.901 333.093 212.901 333.093C212.901 333.093 212.838 333.015 212.727 332.842C209.889 328.812 174.615 276.652 220.028 231.307C223.276 228.064 226.777 224.995 230.514 222.115C241.867 213.285 255.223 206.06 269.114 200.127C281.729 194.744 294.785 190.431 307.195 187C341.979 177.383 371.561 174.708 371.561 174.708C371.561 174.708 368.943 203.652 359.529 237.933C356.092 250.414 351.771 263.572 346.347 276.321C340.466 290.188 333.26 303.519 324.508 314.899L324.492 314.914Z" stroke="#402B25" stroke-width="4.43" stroke-miterlimit="10"/>
<path d="M371.543 174.723L309.354 236.799L272.267 273.787L234.36 311.656L213.23 332.731" stroke="#402B25" stroke-width="4.43" stroke-miterlimit="10"/>
<path d="M307.113 185.096L307.176 187.016L309.352 236.8L309.368 237.429L359.117 237.823" stroke="#402B25" stroke-width="4.43" stroke-miterlimit="10"/>
<path d="M269.035 198.317L269.098 200.143L272.268 273.787L272.346 275.472L345.669 276.038" stroke="#402B25" stroke-width="4.43" stroke-miterlimit="10"/>
<path d="M230.402 219.534L230.513 222.131L234.36 311.657L234.455 314.033L324.255 314.742" stroke="#402B25" stroke-width="4.43" stroke-miterlimit="10"/>
<mask id="mask18_691_5814" style="mask-type:luminance" maskUnits="userSpaceOnUse" x="143" y="253" width="90" height="97">
<path d="M232.168 253.94H143.156V349.888H232.168V253.94Z" fill="white"/>
</mask>
<g mask="url(#mask18_691_5814)">
<mask id="mask19_691_5814" style="mask-type:luminance" maskUnits="userSpaceOnUse" x="143" y="253" width="90" height="97">
<path d="M232.168 253.94H143.156V349.888H232.168V253.94Z" fill="white"/>
</mask>
<g mask="url(#mask19_691_5814)">
<mask id="mask20_691_5814" style="mask-type:luminance" maskUnits="userSpaceOnUse" x="143" y="253" width="90" height="97">
<path d="M232.184 253.94H143.156V349.888H232.184V253.94Z" fill="white"/>
</mask>
<g mask="url(#mask20_691_5814)">
<path d="M226.807 283.2C236.205 302.795 232.862 324.83 219.979 338.083L163.371 259.417C164.38 258.804 165.421 258.253 166.493 257.733C188.111 247.408 215.122 258.804 226.807 283.2Z" fill="#67472F"/>
</g>
<path d="M219.962 338.099L220.529 338.886C220.309 338.65 220.119 338.413 219.883 338.177C219.883 338.177 219.93 338.13 219.962 338.099Z" fill="#926F49"/>
<path d="M219.964 338.099C219.964 338.099 219.901 338.162 219.885 338.178C202.304 318.377 184.628 314.679 172.029 292.423C166.305 282.334 163.735 270.718 162.836 259.732C162.994 259.622 163.183 259.512 163.356 259.417L219.964 338.083V338.099Z" fill="#67472F"/>
<mask id="mask21_691_5814" style="mask-type:luminance" maskUnits="userSpaceOnUse" x="143" y="253" width="90" height="97">
<path d="M232.184 253.94H143.156V349.888H232.184V253.94Z" fill="white"/>
</mask>
<g mask="url(#mask21_691_5814)">
<path d="M219.886 338.177C216.748 341.388 213.058 344.08 208.848 346.078C187.23 356.404 160.25 344.992 148.535 320.596C137.513 297.632 143.993 271.348 162.836 259.732C163.735 270.718 166.305 282.334 172.029 292.423C184.628 314.663 202.304 318.377 219.886 338.177Z" fill="#926F49"/>
</g>
<path d="M162.742 258.536L163.373 259.433C163.199 259.527 163.01 259.637 162.853 259.748C162.821 259.338 162.789 258.945 162.758 258.551" fill="#926F49"/>
</g>
</g>
<path d="M219.886 338.177C216.748 341.388 213.058 344.08 208.848 346.078C187.23 356.404 160.25 344.992 148.535 320.596C137.513 297.632 143.993 271.348 162.836 259.732" stroke="#402B25" stroke-width="4.43" stroke-miterlimit="10"/>
<path d="M163.371 259.433C164.38 258.819 165.421 258.268 166.493 257.749C188.111 247.424 215.107 258.819 226.807 283.215C236.205 302.811 232.862 324.846 219.979 338.099" stroke="#402B25" stroke-width="4.43" stroke-miterlimit="10"/>
<path d="M162.742 258.536C162.774 258.929 162.805 259.323 162.837 259.732C163.736 270.718 166.306 282.334 172.03 292.423C184.628 314.662 202.305 318.377 219.886 338.177C220.123 338.413 220.312 338.649 220.533 338.885" stroke="#402B25" stroke-width="4.43" stroke-miterlimit="10"/>
</g>
<path d="M425.14 134.667V160.212H410.98V89.7622H437.976C446.081 89.7622 452.467 91.8241 457.118 95.9478C461.77 100.072 464.104 105.517 464.104 112.254C464.104 118.99 461.77 124.42 457.118 128.513C452.467 132.605 446.081 134.651 437.976 134.651H425.125L425.14 134.667ZM425.14 123.775H437.991C441.934 123.775 444.929 122.705 446.964 120.564C448.998 118.424 450.023 115.685 450.023 112.364C450.023 109.043 449.013 106.178 446.995 103.975C444.977 101.771 441.981 100.654 438.007 100.654H425.156V123.775H425.14Z" fill="#402B25"/>
<path d="M514.562 129.252H488.386V149.383H519.497V160.228H474.227V89.7622H519.403V100.654H488.386V118.361H514.562V129.252Z" fill="#402B25"/>
<path d="M582.363 136.886L582.458 137.17C582.584 144.693 580.298 150.564 575.567 154.829C570.853 159.095 564.34 161.219 556.031 161.219C547.721 161.219 540.735 158.496 535.532 153.066C530.328 147.636 527.727 140.601 527.727 131.991V118.015C527.727 109.437 530.265 102.417 535.343 96.9395C540.42 91.4779 547.074 88.7393 555.321 88.7393C563.568 88.7393 570.632 90.8326 575.489 95.035C580.345 99.2375 582.695 105.124 582.568 112.742L582.474 113.025H568.708C568.708 108.508 567.62 105.155 565.428 102.936C563.252 100.733 559.878 99.6152 555.321 99.6152C551.079 99.6152 547.784 101.315 545.403 104.715C543.022 108.115 541.839 112.506 541.839 117.904V131.991C541.839 137.406 543.085 141.828 545.592 145.244C548.099 148.659 551.584 150.375 556.031 150.375C560.477 150.375 563.426 149.273 565.507 147.054C567.589 144.85 568.629 141.451 568.629 136.87H582.348L582.363 136.886Z" fill="#402B25"/>
<path d="M629.385 145.023H606.506L601.759 160.212H586.969L610.763 89.7622H625.254L648.954 160.212H634.163L629.369 145.023H629.385ZM609.99 133.943H625.932L618.127 109.122H617.843L609.99 133.943Z" fill="#402B25"/>
<path d="M669.91 132.054V160.212H655.75V89.7622H680.175C688.217 89.7622 694.508 91.588 699.05 95.2553C703.591 98.9226 705.861 104.022 705.861 110.57C705.861 114.174 704.9 117.306 702.976 119.935C701.052 122.563 698.245 124.688 694.571 126.293C698.734 127.521 701.73 129.567 703.559 132.432C705.388 135.296 706.303 138.854 706.303 143.072V148.25C706.303 150.217 706.571 152.279 707.107 154.42C707.643 156.56 708.558 158.15 709.851 159.189V160.212H695.265C693.972 159.173 693.136 157.473 692.774 155.081C692.395 152.688 692.222 150.391 692.222 148.156V143.166C692.222 139.656 691.26 136.918 689.336 134.966C687.413 133.014 684.685 132.038 681.168 132.038H669.926L669.91 132.054ZM669.91 121.162H679.938C683.912 121.162 686.876 120.328 688.8 118.644C690.74 116.976 691.702 114.489 691.702 111.199C691.702 107.91 690.724 105.407 688.769 103.503C686.813 101.598 683.944 100.654 680.159 100.654H669.878V121.162H669.91Z" fill="#402B25"/>
<path d="M567.747 252.099C566.454 251.076 565.634 249.533 565.271 247.456C564.719 244.434 565.429 237.477 567.384 226.617C572.572 198.931 577.996 176.581 583.641 159.551C588.182 146.015 591.699 137.043 594.222 132.605C594.632 131.912 595.278 131.22 596.177 130.48C597.643 129.048 599.157 128.434 600.718 128.607C602.736 128.906 604.187 130.559 605.054 133.565C605.149 134.037 604.897 134.714 604.297 135.58C602.2 135.769 599.788 139.546 597.028 146.928C590.406 164.052 583.2 190.857 575.379 227.356C574.385 232.299 573.786 236.737 573.581 240.64C573.344 243.584 573.77 245.158 574.842 245.394C576.766 245.221 579.967 242.734 584.429 237.965C589.806 232.299 595.42 226.034 601.286 219.188C604.487 215.489 605.985 215.599 605.78 219.518C605.622 221.8 602.926 225.845 597.691 231.669C593.622 237.052 588.986 242.498 583.783 247.991C580.472 251.375 577.271 253.2 574.212 253.468C571.641 253.704 569.465 253.248 567.715 252.114L567.747 252.099Z" fill="#FFA601"/>
<path d="M614.421 213.868C613.049 214.639 611.63 215.741 610.164 217.173C608.713 218.432 607.184 220.352 605.559 222.933C601.286 229.796 598.779 235.368 598.054 239.649C597.502 243.757 598.795 244.119 601.964 240.751C605.307 237.209 608.13 233.951 610.448 230.992C613.097 227.844 614.5 226.333 614.642 226.491C615.21 225.798 615.557 225.027 615.667 224.208C615.935 223.374 616.266 222.776 616.629 222.414C618.143 221.8 619.546 221.423 620.839 221.312C622.132 221.202 623.046 221.438 623.598 222.036C624.292 222.776 624.261 224.161 623.52 226.176C622.778 228.19 622.274 230.095 622.021 231.905C621.659 234.533 621.943 236.044 622.841 236.454C623.551 237.036 624.812 236.517 626.626 234.895C628.25 233.447 631.183 230.599 635.424 226.333C639.792 222.209 643.577 218.385 646.762 214.859C647.913 213.458 648.843 212.404 649.584 211.696C650.136 211.16 650.688 211.192 651.24 211.79C651.745 212.719 651.177 214.544 649.537 217.283C647.913 219.864 645.768 222.808 643.088 226.129C639.855 229.985 636.591 233.605 633.264 236.973C629.764 240.53 627.414 242.608 626.216 243.19C623.929 244.859 621.296 244.843 618.348 243.174C615.241 241.506 613.712 239.869 613.775 238.248C613.633 236.973 612.75 237.524 611.157 239.948C609.533 242.529 607.231 244.921 604.219 247.141C603.147 248.054 601.917 248.888 600.545 249.659C599.536 250.068 598.464 250.336 597.344 250.43L596.13 250.54C593.339 249.99 591.62 248.683 590.942 246.637C590.375 244.906 590.327 242.403 590.769 239.114C591.542 233.369 594.522 226.632 599.709 218.873C603.715 212.845 607.972 208.894 612.529 207.021C615.415 205.62 617.827 204.928 619.735 204.912C621.028 204.802 622.148 204.77 623.078 204.849C627.682 206.045 629.101 207.871 627.351 210.295C626.547 211.507 624.339 212.026 620.697 211.869C618.978 211.696 616.897 212.372 614.453 213.883L614.421 213.868Z" fill="#FFA601"/>
<path d="M666.74 154.467C667.197 157.017 666.693 160.7 665.242 165.532L659.313 188.181C661.82 187.3 663.996 186.465 665.857 185.647C667.718 184.829 668.885 184.482 669.342 184.592C669.657 184.561 669.799 185.285 669.768 186.749C669.342 188.732 667.607 190.432 664.548 191.833C662.167 193.013 659.786 194.131 657.421 195.154C656.696 198.128 656.049 200.537 655.482 202.378C654.804 205.038 654.11 207.761 653.416 210.578C652.076 215.725 650.783 220.62 649.521 225.263C648.275 229.749 647.471 232.818 647.077 234.471C646.809 236.438 646.951 237.729 647.503 238.327C649.032 239.964 654.315 236.171 663.366 226.932C667.607 222.666 671.723 217.504 675.712 211.475C675.917 211.129 676.248 211.019 676.706 211.145C677.794 211.365 677.683 213.317 676.39 217C673.962 223.217 667.986 230.961 658.446 240.247C653.889 244.544 650.388 246.889 647.944 247.267C646.021 247.44 644.002 246.968 641.937 245.866C640.896 245.315 640.06 244.418 639.445 243.175C638.515 241.805 638.073 240.389 638.121 238.925C638.373 237.115 639.035 233.904 640.139 229.261C641.401 224.618 642.694 219.802 644.002 214.812C644.696 211.995 645.453 209.335 646.273 206.832C646.951 204.172 647.597 201.78 648.212 199.608C646.005 200.615 644.05 201.528 642.362 202.315C640.502 203.134 639.414 203.558 639.083 203.59C636.985 203.779 636.166 202.803 636.623 200.647L637.127 196.948L641.164 195.374C643.876 194.162 646.904 192.903 650.262 191.628C653.384 180.327 655.892 171.277 657.768 164.462C659.692 157.332 660.969 153.161 661.615 151.965C662.23 150.942 662.703 150.406 663.019 150.375C665.116 150.186 666.362 151.524 666.772 154.404L666.74 154.467Z" fill="#FFA601"/>
<path d="M684.289 205.117C684.873 205.557 685.03 206.108 684.778 206.769C683.658 209.13 682.76 211.649 682.081 214.309C681.246 216.969 680.174 220.715 678.881 225.531C678.455 227.514 678.124 229.403 677.871 231.213C677.588 233.338 677.477 234.738 677.54 235.368C677.619 236.013 677.887 236.391 678.344 236.501C678.802 236.627 679.464 236.485 680.315 236.076C681.34 235.494 682.854 234.313 684.857 232.503C686.875 230.536 689.02 228.159 691.306 225.358C696.415 219.392 699.726 215.442 701.256 213.522C704.504 209.508 706.68 206.958 707.768 205.888C708.288 205.51 708.84 205.542 709.424 205.982C709.723 206.124 709.818 206.596 709.707 207.415C709.439 209.382 708.998 210.877 708.383 211.9C708.178 212.247 706.712 214.246 703.999 217.881C701.271 221.533 698.307 225.279 695.075 229.135C692.788 231.937 690.628 234.392 688.594 236.517C686.56 238.642 684.92 240.168 683.674 241.097C681.561 242.577 679.527 243.49 677.588 243.836C676.137 243.962 674.686 243.537 673.236 242.529C670.492 240.515 669.514 237.194 670.287 232.598C670.933 227.845 671.611 224.051 672.305 221.234C673.346 215.961 674.26 212.719 675.049 211.507L676.894 208.422C678.218 206.848 679.464 205.841 680.647 205.416C682.318 204.77 683.532 204.676 684.273 205.085L684.289 205.117ZM686.575 193.485C685.708 194.052 684.951 194.272 684.336 194.178C682.633 193.847 681.545 192.478 681.072 190.101C680.615 187.552 681.072 185.49 682.381 183.9C682.775 183.381 683.217 183.019 683.721 182.814C684.226 182.609 684.715 182.483 685.204 182.436L686.166 182.342C689.02 182.405 690.644 183.318 691.038 185.065C691.479 186.481 691.006 188.228 689.619 190.29C688.61 191.833 687.6 192.903 686.56 193.485H686.575Z" fill="#FFA601"/>
<path d="M729.75 232.598C726.518 230.614 725.051 228.002 725.335 224.728L728.079 206.25C728.331 204.44 727.905 203.999 726.833 204.912C725.319 206.675 721.503 213.175 715.37 224.413C710.245 234.109 707.091 239.098 705.956 239.366C701.84 240.389 699.617 239.208 699.286 235.84C699.176 235.525 699.191 234.801 699.349 233.652C700.248 228.222 701.415 223.091 702.865 218.275L706.776 205.29C709.031 200.395 711.774 199.576 714.975 202.85C714.881 203.511 713.257 208.516 710.071 217.865C708.983 221.202 708.227 223.296 707.785 224.146C709.204 221.911 710.655 219.345 712.169 216.465C714.266 212.719 716.268 209.051 718.192 205.479C720.116 201.906 721.283 199.686 721.708 198.852C723.143 196.46 725.414 195.515 728.536 196.051C730.996 196.633 732.967 197.924 734.449 199.891C735.395 201.103 735.695 203.023 735.332 205.636C734.97 208.264 734.418 211.79 733.661 216.244C732.983 220.038 732.636 222.65 732.589 224.114C732.525 225.735 733.282 226.648 734.843 226.821C735.332 226.774 736.01 226.475 736.877 225.908C739.873 223.689 743.421 220.463 747.489 216.197C750.28 213.191 752.961 210.436 755.531 207.934C756.367 207.698 756.714 207.997 756.604 208.815C756.556 209.146 756.414 209.649 756.162 210.311C754.506 214.356 751.684 218.731 747.694 223.469C742.049 229.969 737.682 233.369 734.623 233.636C733.014 233.778 731.39 233.448 729.75 232.613V232.598Z" fill="#FFA601"/>
<path d="M769.975 195.201C769.817 196.35 770.479 196.774 771.946 196.475C773.254 196.192 774.847 196.129 776.739 196.287C777.685 196.365 778.758 196.68 779.956 197.215C781.012 197.609 782.022 198.411 782.968 199.623C783.788 199.387 784.954 199.041 786.452 198.585L799.761 195.437C801.227 195.138 801.984 195.484 802 196.444C802 198.868 799.351 200.725 794.084 202.016C791.782 202.551 789.606 203.102 787.54 203.7C785.475 204.298 784.403 204.833 784.34 205.321C784.276 205.809 783.945 207.052 783.362 209.051C782.778 211.05 782.369 212.309 782.132 212.813C781.627 214.151 780.871 215.599 779.877 217.141C778.852 218.857 777.654 220.588 776.314 222.32C773.964 225.609 771.473 228.757 768.839 231.748C765.812 235.257 763.636 237.241 762.311 237.681C761.302 238.09 760.309 238.342 759.347 238.437C757.739 238.578 755.957 238.264 754.001 237.461C751.321 236.076 749.649 233.809 748.971 230.63C748.167 227.136 748.814 221.816 750.895 214.67C752.141 210.184 753.655 206.076 755.436 202.362C757.912 196.948 760.924 194.099 764.472 193.768C767.042 193.532 768.887 194.02 769.99 195.216L769.975 195.201ZM767.468 204.912C765.654 204.266 764.55 203.558 764.188 202.771C763.384 203.983 762.469 205.526 761.413 207.399C760.687 209.256 760.025 211.176 759.442 213.175C758.338 216.669 757.376 220.163 756.587 223.642C756.114 227.089 756.288 229.418 757.076 230.646C757.675 232.047 759.047 231.921 761.176 230.268C763.289 228.789 765.481 226.648 767.767 223.846C769.123 222.099 770.385 220.368 771.583 218.637C772.797 216.748 773.838 214.954 774.705 213.254C775.762 211.381 776.455 209.697 776.818 208.201C777.181 206.706 776.96 205.998 776.156 206.076C772.198 205.951 769.312 205.557 767.483 204.912H767.468Z" fill="#FFA601"/>
<path d="M543.829 287.103C575.792 278.226 607.943 269.806 640.583 263.715C671.205 258.001 702.158 254.649 733.253 253.169C754.209 252.162 775.197 251.926 796.184 252.052C800.678 252.083 800.694 245.095 796.184 245.079C760.863 244.859 725.48 245.709 690.348 249.439C659.616 252.697 629.23 258.3 599.16 265.462C579.986 270.026 560.954 275.126 541.969 280.398C537.648 281.595 539.477 288.331 543.829 287.119" fill="#FFA601"/>
</svg>
