<svg width="429" height="582" viewBox="0 0 429 582" fill="none" xmlns="http://www.w3.org/2000/svg">
<rect width="429" height="582" fill="white"/>
<g clip-path="url(#clip0_691_5813)">
<path d="M351.403 185.936C351.403 100.922 282.833 32 198.252 32C113.672 32 45.1016 100.922 45.1016 185.936C45.1016 270.951 113.672 339.873 198.252 339.873C282.833 339.873 351.403 270.951 351.403 185.936Z" fill="#402B25"/>
<path d="M333.539 185.936C333.539 110.838 272.967 49.9551 198.252 49.9551C123.537 49.9551 62.9648 110.838 62.9648 185.936C62.9648 261.035 123.537 321.917 198.252 321.917C272.967 321.917 333.539 261.035 333.539 185.936Z" fill="#C4D7DB"/>
<mask id="mask0_691_5813" style="mask-type:luminance" maskUnits="userSpaceOnUse" x="62" y="49" width="272" height="273">
<path d="M62.9648 185.936C62.9648 261.035 123.537 321.917 198.252 321.917C272.967 321.917 333.539 261.035 333.539 185.936C333.539 110.838 272.967 49.9551 198.252 49.9551C123.537 49.9551 62.9648 110.838 62.9648 185.936Z" fill="white"/>
</mask>
<g mask="url(#mask0_691_5813)">
<mask id="mask1_691_5813" style="mask-type:luminance" maskUnits="userSpaceOnUse" x="21" y="63" width="259" height="260">
<path d="M279.35 63.6665H21.4141V322.912H279.35V63.6665Z" fill="white"/>
</mask>
<g mask="url(#mask1_691_5813)">
<mask id="mask2_691_5813" style="mask-type:luminance" maskUnits="userSpaceOnUse" x="21" y="63" width="259" height="260">
<path d="M279.35 63.6665H21.4141V322.912H279.35V63.6665Z" fill="white"/>
</mask>
<g mask="url(#mask2_691_5813)">
<mask id="mask3_691_5813" style="mask-type:luminance" maskUnits="userSpaceOnUse" x="21" y="63" width="259" height="260">
<path d="M279.35 63.6665H21.4141V322.912H279.35V63.6665Z" fill="white"/>
</mask>
<g mask="url(#mask3_691_5813)">
<path d="M21.4141 63.6665L113.31 156.048L39.6121 159.255C25.3574 107.602 21.4141 63.6665 21.4141 63.6665Z" fill="#0B692F"/>
<path d="M113.31 156.048L21.4141 63.6665C21.4141 63.6665 64.2478 67.5601 114.996 81.5377L114.829 82.126L114.272 156.006L113.324 156.034L113.31 156.048Z" fill="#88BA80"/>
</g>
<path d="M114.813 82.1258L114.981 81.5376C133.457 86.6357 152.965 93.0643 171.832 101.118L171.414 102.098L170.55 210.978L168.084 211.09L113.309 156.034L114.256 156.006L114.813 82.1258Z" fill="#88BA80"/>
<path d="M171.428 102.112L171.846 101.132C192.343 109.871 212.102 120.544 228.92 133.569L228.67 133.905L227.638 267.281L224.113 267.421L168.098 211.118L170.564 211.006L171.428 102.126V102.112Z" fill="#88BA80"/>
<mask id="mask4_691_5813" style="mask-type:luminance" maskUnits="userSpaceOnUse" x="21" y="63" width="259" height="260">
<path d="M279.35 63.6665H21.4141V322.912H279.35V63.6665Z" fill="white"/>
</mask>
<g mask="url(#mask4_691_5813)">
<path d="M228.672 133.891L228.923 133.555C234.789 138.037 240.279 142.826 245.323 147.896C315.162 218.093 255.83 299.298 255.83 299.298C255.83 299.298 255.718 299.382 255.467 299.55L255.328 298.794L224.102 267.407L227.641 267.267L228.672 133.891Z" fill="#74B844"/>
</g>
<path d="M39.5977 159.255L113.296 156.048L168.071 211.104L59.0777 215.81C51.0655 197.07 44.6976 177.687 39.5977 159.255Z" fill="#0B692F"/>
<path d="M59.0938 215.81L168.087 211.104L224.102 267.407L91.6162 273.122C78.5738 256.273 67.8723 236.441 59.0938 215.81Z" fill="#0B692F"/>
<mask id="mask5_691_5813" style="mask-type:luminance" maskUnits="userSpaceOnUse" x="21" y="63" width="259" height="260">
<path d="M279.35 63.6665H21.4141V322.912H279.35V63.6665Z" fill="white"/>
</mask>
<g mask="url(#mask5_691_5813)">
<path d="M91.6155 273.122L224.102 267.407L255.328 298.794L255.468 299.55C249.49 303.78 172.281 356.161 105.201 288.696C100.408 283.878 95.8654 278.668 91.6016 273.108" fill="#0B692F"/>
</g>
</g>
</g>
<path d="M228.922 133.555C234.774 138.037 240.278 142.827 245.323 147.897C315.161 218.093 255.829 299.298 255.829 299.298C255.829 299.298 255.718 299.382 255.467 299.55C249.489 303.78 172.294 356.161 105.2 288.696C100.407 283.878 95.8645 278.668 91.6006 273.107C78.5721 256.259 67.8567 236.413 59.0782 215.796C51.066 197.057 44.6981 177.673 39.5982 159.241C25.3574 107.602 21.4141 63.6665 21.4141 63.6665C21.4141 63.6665 64.2478 67.5601 114.996 81.5377C133.473 86.6358 152.981 93.0644 171.848 101.118C192.345 109.857 212.104 120.53 228.922 133.555Z" stroke="#402B25" stroke-width="4.43" stroke-miterlimit="10"/>
<path d="M21.4141 63.6665L113.31 156.048L168.085 211.104L224.101 267.407L255.327 298.794" stroke="#402B25" stroke-width="4.43" stroke-miterlimit="10"/>
<path d="M36.7695 159.367L39.5982 159.255L113.31 156.048L114.258 156.02L114.815 82.126" stroke="#402B25" stroke-width="4.43" stroke-miterlimit="10"/>
<path d="M56.3477 215.922L59.0927 215.81L168.086 211.104L170.552 210.992L171.43 102.112" stroke="#402B25" stroke-width="4.43" stroke-miterlimit="10"/>
<path d="M87.7695 273.29L91.6154 273.122L224.102 267.407L227.641 267.267L228.672 133.891" stroke="#402B25" stroke-width="4.43" stroke-miterlimit="10"/>
<mask id="mask6_691_5813" style="mask-type:luminance" maskUnits="userSpaceOnUse" x="239" y="90" width="103" height="103">
<path d="M341.371 90.5996H239.094V192.813H341.371V90.5996Z" fill="white"/>
</mask>
<g mask="url(#mask6_691_5813)">
<mask id="mask7_691_5813" style="mask-type:luminance" maskUnits="userSpaceOnUse" x="239" y="90" width="103" height="103">
<path d="M341.371 90.5996H239.094V192.813H341.371V90.5996Z" fill="white"/>
</mask>
<g mask="url(#mask7_691_5813)">
<mask id="mask8_691_5813" style="mask-type:luminance" maskUnits="userSpaceOnUse" x="239" y="90" width="103" height="103">
<path d="M341.371 90.5996H239.094V192.813H341.371V90.5996Z" fill="white"/>
</mask>
<g mask="url(#mask8_691_5813)">
<path d="M329.276 104.185C347.516 123.359 344.813 155.698 323.256 176.412C305.922 193.079 281.677 197.141 263.367 188.149L326.461 101.482C327.437 102.336 328.37 103.219 329.276 104.171" fill="#67472F"/>
</g>
<path d="M327.16 100.53L326.463 101.496C326.282 101.328 326.115 101.188 325.934 101.048C326.338 100.88 326.756 100.698 327.16 100.53Z" fill="#926F49"/>
<path d="M326.461 101.496L263.367 188.163C263.367 188.163 263.297 188.149 263.27 188.121C277.984 162.785 275.824 142.925 294.817 121.986C303.428 112.49 314.715 105.768 325.946 101.048C326.127 101.188 326.294 101.342 326.475 101.496" fill="#67472F"/>
<mask id="mask9_691_5813" style="mask-type:luminance" maskUnits="userSpaceOnUse" x="239" y="90" width="103" height="103">
<path d="M341.371 90.5996H239.094V192.813H341.371V90.5996Z" fill="white"/>
</mask>
<g mask="url(#mask9_691_5813)">
<path d="M325.933 101.033C314.702 105.753 303.416 112.476 294.804 121.972C275.812 142.91 277.972 162.77 263.257 188.107C258.812 185.922 254.73 182.967 251.19 179.227C232.95 160.053 235.654 127.714 257.21 107C277.526 87.4899 307.303 85.235 325.933 101.033Z" fill="#926F49"/>
</g>
<path d="M263.368 188.163L262.727 189.045C262.922 188.737 263.089 188.429 263.27 188.121C263.298 188.149 263.326 188.163 263.368 188.163Z" fill="#926F49"/>
</g>
</g>
<path d="M263.257 188.121C258.812 185.936 254.73 182.981 251.19 179.241C232.95 160.081 235.654 127.728 257.21 107.014C277.526 87.5041 307.303 85.2492 325.933 101.048" stroke="#402B25" stroke-width="4.43" stroke-miterlimit="10"/>
<path d="M326.461 101.496C327.437 102.35 328.37 103.246 329.276 104.199C347.516 123.372 344.813 155.712 323.256 176.426C305.922 193.093 281.677 197.168 263.367 188.163" stroke="#402B25" stroke-width="4.43" stroke-miterlimit="10"/>
<path d="M327.157 100.529C326.752 100.697 326.334 100.865 325.93 101.048C314.699 105.767 303.413 112.49 294.801 121.986C275.809 142.924 277.969 162.785 263.254 188.121C263.073 188.429 262.906 188.737 262.711 189.045" stroke="#402B25" stroke-width="4.43" stroke-miterlimit="10"/>
<mask id="mask10_691_5813" style="mask-type:luminance" maskUnits="userSpaceOnUse" x="95" y="116" width="212" height="212">
<path d="M306.425 116.272H95.7539V327.324H306.425V116.272Z" fill="white"/>
</mask>
<g mask="url(#mask10_691_5813)">
<mask id="mask11_691_5813" style="mask-type:luminance" maskUnits="userSpaceOnUse" x="95" y="116" width="212" height="212">
<path d="M306.425 116.272H95.7539V327.324H306.425V116.272Z" fill="white"/>
</mask>
<g mask="url(#mask11_691_5813)">
<mask id="mask12_691_5813" style="mask-type:luminance" maskUnits="userSpaceOnUse" x="95" y="116" width="212" height="212">
<path d="M306.425 116.272H95.7539V327.324H306.425V116.272Z" fill="white"/>
</mask>
<g mask="url(#mask12_691_5813)">
<path d="M299.5 148.723C303.973 163.317 306.411 179.157 306.411 195.726C306.411 268.402 259.244 327.323 201.082 327.323C142.921 327.323 95.7539 268.387 95.7539 195.712C95.7539 179.283 98.1785 163.555 102.582 149.073C102.387 149.955 102.289 150.866 102.289 151.804C102.289 157.35 105.842 162.603 112.168 167.309C112.67 167.673 113.186 168.065 113.729 168.401C114.272 168.765 114.816 169.129 115.373 169.493C116.572 170.25 117.84 170.964 119.149 171.678C119.985 172.112 120.849 172.547 121.727 172.981C125.796 174.956 130.436 176.776 135.522 178.387C136.33 178.667 137.166 178.905 138.002 179.157C138.156 179.199 138.323 179.255 138.476 179.297C139.633 179.634 140.775 179.984 141.988 180.278C143.005 180.572 144.05 180.852 145.109 181.09C146.265 181.384 147.464 181.664 148.662 181.93C149.387 182.085 150.139 182.253 150.878 182.407C153.428 182.953 156.061 183.457 158.764 183.905C160.032 184.129 161.314 184.339 162.624 184.55C164.087 184.774 165.606 184.984 167.125 185.18C169.549 185.502 172.016 185.796 174.524 186.048C175.973 186.188 177.436 186.314 178.913 186.426C181.268 186.636 183.637 186.79 186.061 186.93C187.441 187.001 188.834 187.071 190.242 187.141C190.492 187.141 190.743 187.169 190.994 187.169C192.471 187.211 193.976 187.267 195.467 187.281C197.32 187.323 199.201 187.351 201.096 187.351C202.991 187.351 204.873 187.323 206.726 187.281C208.217 187.253 209.736 187.211 211.199 187.169C211.449 187.169 211.7 187.141 211.937 187.141C213.345 187.071 214.738 187.001 216.117 186.93C218.542 186.79 220.911 186.636 223.266 186.426C224.729 186.314 226.206 186.174 227.655 186.048C230.163 185.796 232.629 185.502 235.054 185.18C236.573 184.97 238.078 184.774 239.555 184.55C240.865 184.339 242.16 184.143 243.415 183.905C246.132 183.457 248.751 182.953 251.301 182.407C252.04 182.253 252.792 182.085 253.517 181.93C254.715 181.65 255.914 181.384 257.07 181.09C258.129 180.838 259.174 180.572 260.191 180.278C261.39 179.984 262.546 179.648 263.689 179.297C263.842 179.255 264.009 179.199 264.163 179.157C264.999 178.905 265.835 178.653 266.643 178.387C271.729 176.776 276.369 174.956 280.438 172.981C281.316 172.547 282.179 172.112 283.016 171.678C284.325 170.978 285.593 170.25 286.792 169.493C287.363 169.129 287.892 168.765 288.436 168.401C288.979 168.065 289.495 167.673 289.997 167.309C296.323 162.603 299.876 157.35 299.876 151.804C299.876 150.754 299.737 149.731 299.486 148.709" fill="#F6B56A"/>
<path d="M102.594 148.989C106.593 130.67 149.162 116.272 201.081 116.272C253 116.272 295.164 130.544 299.498 148.723C299.749 149.746 299.888 150.768 299.888 151.818C299.888 157.365 296.335 162.617 290.009 167.323C273.998 155.46 240.194 147.281 201.081 147.281C161.968 147.281 128.163 155.46 112.153 167.323C105.827 162.617 102.273 157.365 102.273 151.818C102.273 150.88 102.371 149.984 102.566 149.087C102.566 149.059 102.566 149.017 102.594 148.989Z" fill="#FFA601"/>
</g>
<path d="M290.01 167.309C289.508 167.673 288.993 168.065 288.449 168.401C287.934 168.765 287.363 169.129 286.805 169.494C285.607 170.25 284.339 170.964 283.029 171.678C282.193 172.113 281.329 172.547 280.451 172.967C276.382 174.942 271.742 176.763 266.656 178.373C265.848 178.653 265.012 178.891 264.176 179.144C264.023 179.186 263.856 179.228 263.702 179.284C262.546 179.62 261.389 179.942 260.191 180.264C259.174 180.558 258.129 180.81 257.07 181.076C255.913 181.37 254.715 181.637 253.516 181.917C252.792 182.071 252.053 182.239 251.301 182.393C248.751 182.939 246.117 183.443 243.414 183.891C242.146 184.116 240.864 184.326 239.554 184.522C238.063 184.746 236.572 184.956 235.054 185.152C232.629 185.474 230.177 185.768 227.668 186.02C226.219 186.16 224.756 186.286 223.279 186.412C220.924 186.623 218.556 186.777 216.131 186.917C214.751 186.987 213.344 187.057 211.951 187.127C211.7 187.127 211.449 187.155 211.198 187.155C209.707 187.197 208.216 187.253 206.725 187.267C204.872 187.309 202.991 187.337 201.096 187.337C199.201 187.337 197.32 187.309 195.467 187.267C193.976 187.239 192.485 187.197 190.994 187.155C190.743 187.155 190.492 187.127 190.241 187.127C188.834 187.057 187.44 186.987 186.061 186.917C183.636 186.777 181.268 186.623 178.913 186.412C177.45 186.3 175.973 186.16 174.523 186.02C172.015 185.768 169.549 185.474 167.138 185.152C165.62 184.942 164.129 184.746 162.638 184.522C161.328 184.312 160.032 184.116 158.778 183.891C156.061 183.443 153.441 182.939 150.891 182.393C150.153 182.239 149.4 182.071 148.676 181.917C147.477 181.637 146.279 181.37 145.122 181.076C144.063 180.796 143.018 180.558 142.001 180.264C140.803 179.942 139.646 179.62 138.49 179.284C138.336 179.242 138.169 179.186 138.016 179.144C137.18 178.891 136.344 178.639 135.522 178.373C130.436 176.763 125.796 174.942 121.727 172.967C120.849 172.533 119.985 172.099 119.149 171.678C117.839 170.978 116.571 170.25 115.373 169.494C114.802 169.129 114.244 168.765 113.729 168.401C113.185 168.065 112.67 167.673 112.168 167.309C128.178 155.446 161.969 147.267 201.096 147.267C240.223 147.267 274.014 155.446 290.024 167.309" fill="#7A401A"/>
</g>
</g>
<path d="M290.008 167.309C273.998 155.446 240.194 147.267 201.08 147.267C161.967 147.267 128.163 155.446 112.152 167.309" stroke="#402B25" stroke-width="4.43" stroke-miterlimit="10"/>
<path d="M286.789 169.493C287.36 169.129 287.918 168.765 288.433 168.401" stroke="#402B25" stroke-width="4.43" stroke-miterlimit="10"/>
<path d="M280.438 172.967C281.315 172.533 282.179 172.098 283.015 171.678" stroke="#402B25" stroke-width="4.43" stroke-miterlimit="10"/>
<path d="M264.16 179.143C264.996 178.891 265.832 178.639 266.64 178.373" stroke="#402B25" stroke-width="4.43" stroke-miterlimit="10"/>
<path d="M257.07 181.076C258.129 180.824 259.174 180.558 260.192 180.264C261.39 179.969 262.546 179.633 263.703 179.283" stroke="#402B25" stroke-width="4.43" stroke-miterlimit="10"/>
<path d="M251.301 182.393C252.039 182.239 252.792 182.071 253.516 181.917" stroke="#402B25" stroke-width="4.43" stroke-miterlimit="10"/>
<path d="M235.039 185.166C236.558 184.956 238.063 184.759 239.54 184.535C240.85 184.325 242.146 184.129 243.4 183.891" stroke="#402B25" stroke-width="4.43" stroke-miterlimit="10"/>
<path d="M223.266 186.426C224.729 186.314 226.206 186.174 227.655 186.034" stroke="#402B25" stroke-width="4.43" stroke-miterlimit="10"/>
<path d="M211.938 187.127C213.345 187.057 214.738 186.987 216.118 186.917" stroke="#402B25" stroke-width="4.43" stroke-miterlimit="10"/>
<path d="M206.711 187.267C208.202 187.239 209.721 187.197 211.184 187.155" stroke="#402B25" stroke-width="4.43" stroke-miterlimit="10"/>
<path d="M190.98 187.141C192.444 187.183 193.962 187.239 195.453 187.253" stroke="#402B25" stroke-width="4.43" stroke-miterlimit="10"/>
<path d="M186.047 186.917C187.426 186.987 188.834 187.057 190.227 187.127" stroke="#402B25" stroke-width="4.43" stroke-miterlimit="10"/>
<path d="M174.523 186.034C175.973 186.174 177.436 186.314 178.913 186.426" stroke="#402B25" stroke-width="4.43" stroke-miterlimit="10"/>
<path d="M158.762 183.891C160.03 184.115 161.312 184.325 162.621 184.521C164.085 184.745 165.603 184.956 167.122 185.166" stroke="#402B25" stroke-width="4.43" stroke-miterlimit="10"/>
<path d="M148.66 181.917C149.385 182.071 150.123 182.239 150.876 182.393" stroke="#402B25" stroke-width="4.43" stroke-miterlimit="10"/>
<path d="M138.477 179.283C139.633 179.619 140.776 179.969 141.974 180.264C142.991 180.558 144.036 180.824 145.095 181.076" stroke="#402B25" stroke-width="4.43" stroke-miterlimit="10"/>
<path d="M135.52 178.373C136.328 178.653 137.164 178.891 138 179.143" stroke="#402B25" stroke-width="4.43" stroke-miterlimit="10"/>
<path d="M119.148 171.678C119.984 172.112 120.848 172.547 121.726 172.981" stroke="#402B25" stroke-width="4.43" stroke-miterlimit="10"/>
<path d="M113.727 168.401C114.242 168.765 114.813 169.129 115.371 169.493" stroke="#402B25" stroke-width="4.43" stroke-miterlimit="10"/>
<path d="M102.593 148.989C106.593 130.67 149.161 116.272 201.08 116.272C252.999 116.272 295.164 130.544 299.497 148.723C299.748 149.746 299.888 150.768 299.888 151.818C299.888 157.365 296.334 162.617 290.008 167.323C289.507 167.687 288.991 168.079 288.448 168.415C287.904 168.779 287.361 169.143 286.803 169.508C285.605 170.264 284.337 170.978 283.027 171.692C282.191 172.127 281.327 172.561 280.449 172.981C276.381 174.956 271.741 176.777 266.655 178.387C265.846 178.653 265.01 178.905 264.174 179.157C264.021 179.199 263.854 179.256 263.701 179.298C262.544 179.634 261.401 179.956 260.189 180.278C259.172 180.572 258.127 180.824 257.068 181.09C255.911 181.384 254.713 181.65 253.515 181.931C252.79 182.085 252.052 182.253 251.299 182.407C248.749 182.953 246.116 183.457 243.412 183.905C242.144 184.129 240.862 184.34 239.553 184.536C238.062 184.76 236.571 184.97 235.052 185.166C232.627 185.488 230.161 185.782 227.653 186.034C226.204 186.174 224.741 186.3 223.264 186.426C220.909 186.637 218.54 186.791 216.115 186.931C214.736 187.001 213.328 187.071 211.935 187.141C211.684 187.141 211.433 187.169 211.183 187.169C209.692 187.211 208.201 187.267 206.71 187.281C204.856 187.323 202.975 187.351 201.08 187.351C199.185 187.351 197.304 187.323 195.451 187.281C193.96 187.253 192.469 187.211 190.978 187.169C190.727 187.169 190.476 187.141 190.239 187.141C188.832 187.071 187.439 187.001 186.059 186.931C183.635 186.791 181.266 186.637 178.911 186.426C177.448 186.314 175.971 186.174 174.522 186.034C172.014 185.782 169.547 185.488 167.123 185.166C165.604 184.956 164.113 184.76 162.622 184.536C161.312 184.326 160.016 184.129 158.762 183.905C156.045 183.457 153.425 182.953 150.875 182.407C150.123 182.253 149.384 182.085 148.66 181.931C147.461 181.65 146.263 181.384 145.107 181.09C144.048 180.81 143.003 180.572 141.985 180.278C140.787 179.956 139.63 179.634 138.488 179.298C138.335 179.256 138.167 179.199 138.014 179.157C137.178 178.905 136.342 178.653 135.534 178.387C130.448 176.777 125.808 174.956 121.739 172.981C120.861 172.547 119.997 172.113 119.161 171.692C117.851 170.992 116.583 170.264 115.385 169.508C114.814 169.143 114.27 168.779 113.741 168.415C113.197 168.079 112.682 167.687 112.18 167.323C105.854 162.617 102.301 157.365 102.301 151.818C102.301 150.88 102.398 149.984 102.593 149.087" stroke="#402B25" stroke-width="4.43" stroke-miterlimit="10"/>
<path d="M103.125 147.294C102.944 147.869 102.763 148.429 102.61 149.003C102.582 149.031 102.582 149.073 102.582 149.101C98.1785 163.583 95.7539 179.297 95.7539 195.74C95.7539 268.416 142.921 327.337 201.096 327.337C259.272 327.337 306.439 268.416 306.439 195.74C306.439 179.171 304 163.331 299.514 148.737" stroke="#402B25" stroke-width="4.43" stroke-miterlimit="10"/>
<mask id="mask13_691_5813" style="mask-type:luminance" maskUnits="userSpaceOnUse" x="184" y="174" width="155" height="156">
<path d="M338.39 174.129H184.125V329.172H338.39V174.129Z" fill="white"/>
</mask>
<g mask="url(#mask13_691_5813)">
<mask id="mask14_691_5813" style="mask-type:luminance" maskUnits="userSpaceOnUse" x="184" y="174" width="155" height="156">
<path d="M338.39 174.129H184.125V329.172H338.39V174.129Z" fill="white"/>
</mask>
<g mask="url(#mask14_691_5813)">
<mask id="mask15_691_5813" style="mask-type:luminance" maskUnits="userSpaceOnUse" x="184" y="174" width="155" height="156">
<path d="M338.39 174.129H184.125V329.172H338.39V174.129Z" fill="white"/>
</mask>
<g mask="url(#mask15_691_5813)">
<path d="M338.375 174.129L283.405 229.382L281.496 185.068C312.235 176.51 338.375 174.129 338.375 174.129Z" fill="#88BA80"/>
<path d="M283.418 229.368L338.374 174.129C338.374 174.129 336.061 199.886 327.743 230.39L327.394 230.292L283.432 229.942V229.382L283.418 229.368Z" fill="#0B692F"/>
</g>
<path d="M327.398 230.278L327.746 230.376C324.709 241.483 320.891 253.191 316.097 264.536L315.512 264.284L250.718 263.78L250.648 262.281L283.408 229.368V229.928L327.384 230.278H327.398Z" fill="#0B692F"/>
<path d="M315.512 264.284L316.097 264.536C310.899 276.875 304.531 288.738 296.798 298.864L296.603 298.71L217.248 298.08L217.164 295.951L250.662 262.267L250.732 263.766L315.526 264.27L315.512 264.284Z" fill="#0B692F"/>
<mask id="mask16_691_5813" style="mask-type:luminance" maskUnits="userSpaceOnUse" x="184" y="174" width="155" height="156">
<path d="M338.39 174.129H184.125V329.172H338.39V174.129Z" fill="white"/>
</mask>
<g mask="url(#mask16_691_5813)">
<path d="M296.586 298.724L296.781 298.878C294.12 302.38 291.263 305.685 288.253 308.724C246.493 350.699 198.169 315.055 198.169 315.055C198.169 315.055 198.113 314.985 198.016 314.831L198.475 314.733L217.161 295.979L217.245 298.108L296.6 298.724H296.586Z" fill="#0B692F"/>
</g>
<path d="M281.499 185.068L283.408 229.382L250.648 262.295L247.848 196.749C258.995 191.959 270.533 188.121 281.499 185.068Z" fill="#88BA80"/>
<path d="M247.847 196.749L250.648 262.295L217.15 295.979L213.75 216.314C223.783 208.457 235.585 202.029 247.861 196.749" fill="#88BA80"/>
<mask id="mask17_691_5813" style="mask-type:luminance" maskUnits="userSpaceOnUse" x="184" y="174" width="155" height="156">
<path d="M338.39 174.129H184.125V329.172H338.39V174.129Z" fill="white"/>
</mask>
<g mask="url(#mask17_691_5813)">
<path d="M213.749 216.314L217.149 295.979L198.463 314.732L198.003 314.83C195.495 311.245 164.324 264.83 204.455 224.48C207.325 221.594 210.419 218.863 213.721 216.3" fill="#88BA80"/>
</g>
</g>
</g>
<path d="M296.796 298.878C294.135 302.379 291.278 305.685 288.269 308.724C246.508 350.699 198.184 315.054 198.184 315.054C198.184 315.054 198.128 314.984 198.031 314.83C195.523 311.245 164.352 264.83 204.482 224.48C207.353 221.594 210.446 218.863 213.749 216.3C223.781 208.443 235.583 202.015 247.859 196.734C259.007 191.944 270.544 188.107 281.51 185.054C312.249 176.496 338.39 174.115 338.39 174.115C338.39 174.115 336.077 199.872 327.758 230.376C324.72 241.483 320.902 253.191 316.109 264.536C310.912 276.875 304.544 288.738 296.81 298.864L296.796 298.878Z" stroke="#402B25" stroke-width="4.43" stroke-miterlimit="10"/>
<path d="M338.376 174.129L283.419 229.368L250.646 262.281L217.148 295.979L198.477 314.732" stroke="#402B25" stroke-width="4.43" stroke-miterlimit="10"/>
<path d="M281.441 183.359L281.497 185.068L283.42 229.368L283.434 229.928L327.396 230.278" stroke="#402B25" stroke-width="4.43" stroke-miterlimit="10"/>
<path d="M247.789 195.124L247.845 196.749L250.646 262.281L250.715 263.78L315.509 264.284" stroke="#402B25" stroke-width="4.43" stroke-miterlimit="10"/>
<path d="M213.648 214.003L213.746 216.314L217.146 295.979L217.23 298.094L296.585 298.724" stroke="#402B25" stroke-width="4.43" stroke-miterlimit="10"/>
<mask id="mask18_691_5813" style="mask-type:luminance" maskUnits="userSpaceOnUse" x="136" y="244" width="80" height="86">
<path d="M215.209 244.62H136.551V329.998H215.209V244.62Z" fill="white"/>
</mask>
<g mask="url(#mask18_691_5813)">
<mask id="mask19_691_5813" style="mask-type:luminance" maskUnits="userSpaceOnUse" x="136" y="244" width="80" height="86">
<path d="M215.209 244.62H136.551V329.998H215.209V244.62Z" fill="white"/>
</mask>
<g mask="url(#mask19_691_5813)">
<mask id="mask20_691_5813" style="mask-type:luminance" maskUnits="userSpaceOnUse" x="136" y="244" width="80" height="86">
<path d="M215.223 244.62H136.551V329.998H215.223V244.62Z" fill="white"/>
</mask>
<g mask="url(#mask20_691_5813)">
<path d="M210.471 270.656C218.776 288.093 215.822 307.701 204.438 319.494L154.414 249.494C155.306 248.947 156.226 248.457 157.173 247.995C176.277 238.807 200.146 248.947 210.471 270.656Z" fill="#67472F"/>
</g>
<path d="M204.425 319.508L204.927 320.208C204.732 319.998 204.564 319.788 204.355 319.578C204.355 319.578 204.397 319.536 204.425 319.508Z" fill="#926F49"/>
<path d="M204.425 319.508C204.425 319.508 204.369 319.564 204.355 319.578C188.819 301.959 173.198 298.668 162.065 278.864C157.007 269.886 154.736 259.55 153.941 249.774C154.081 249.676 154.248 249.578 154.401 249.494L204.425 319.494V319.508Z" fill="#67472F"/>
<mask id="mask21_691_5813" style="mask-type:luminance" maskUnits="userSpaceOnUse" x="136" y="244" width="80" height="86">
<path d="M215.223 244.62H136.551V329.998H215.223V244.62Z" fill="white"/>
</mask>
<g mask="url(#mask21_691_5813)">
<path d="M204.356 319.578C201.583 322.435 198.322 324.83 194.602 326.609C175.498 335.797 151.657 325.643 141.304 303.934C131.564 283.5 137.291 260.11 153.942 249.774C154.736 259.55 157.007 269.886 162.066 278.864C173.199 298.654 188.819 301.959 204.356 319.578Z" fill="#926F49"/>
</g>
<path d="M153.855 248.709L154.413 249.508C154.26 249.592 154.092 249.69 153.953 249.788C153.925 249.424 153.897 249.074 153.869 248.723" fill="#926F49"/>
</g>
</g>
<path d="M204.356 319.578C201.583 322.435 198.322 324.83 194.602 326.609C175.498 335.797 151.657 325.643 141.304 303.934C131.564 283.5 137.291 260.11 153.942 249.774" stroke="#402B25" stroke-width="4.43" stroke-miterlimit="10"/>
<path d="M154.414 249.508C155.306 248.962 156.226 248.471 157.173 248.009C176.277 238.821 200.132 248.962 210.471 270.67C218.776 288.107 215.822 307.715 204.438 319.508" stroke="#402B25" stroke-width="4.43" stroke-miterlimit="10"/>
<path d="M153.859 248.709C153.887 249.06 153.915 249.41 153.943 249.774C154.737 259.55 157.009 269.886 162.067 278.864C173.2 298.654 188.82 301.959 204.357 319.578C204.566 319.788 204.733 319.998 204.928 320.208" stroke="#402B25" stroke-width="4.43" stroke-miterlimit="10"/>
</g>
<path d="M77.9738 413.741V436.473H65.4609V373.783H89.3163C96.4785 373.783 102.122 375.618 106.232 379.287C110.343 382.957 112.405 387.803 112.405 393.797C112.405 399.792 110.343 404.624 106.232 408.265C102.122 411.907 96.4785 413.727 89.3163 413.727H77.9599L77.9738 413.741ZM77.9738 404.049H89.3302C92.8138 404.049 95.4613 403.097 97.2588 401.192C99.0563 399.288 99.962 396.851 99.962 393.895C99.962 390.94 99.0702 388.391 97.2866 386.43C95.5031 384.47 92.8556 383.475 89.3441 383.475H77.9878V404.049H77.9738Z" fill="#402B25"/>
<path d="M156.995 408.909H133.864V426.823H161.357V436.473H121.352V373.783H161.273V383.475H133.864V399.231H156.995V408.923V408.909Z" fill="#402B25"/>
<path d="M216.927 415.716L217.01 415.969C217.122 422.663 215.101 427.887 210.921 431.683C206.755 435.478 201 437.369 193.656 437.369C186.313 437.369 180.14 434.946 175.542 430.114C170.944 425.282 168.645 419.022 168.645 411.361V398.924C168.645 391.29 170.888 385.044 175.375 380.17C179.862 375.31 185.742 372.873 193.029 372.873C200.317 372.873 206.559 374.736 210.851 378.475C215.143 382.215 217.219 387.453 217.108 394.232L217.024 394.484H204.86C204.86 390.464 203.898 387.481 201.961 385.506C200.038 383.545 197.056 382.551 193.029 382.551C189.281 382.551 186.369 384.064 184.265 387.089C182.161 390.114 181.116 394.022 181.116 398.826V411.361C181.116 416.179 182.216 420.114 184.432 423.153C186.648 426.193 189.727 427.719 193.656 427.719C197.586 427.719 200.192 426.739 202.031 424.764C203.87 422.803 204.79 419.778 204.79 415.702H216.913L216.927 415.716Z" fill="#402B25"/>
<path d="M258.463 422.943H238.245L234.051 436.459H220.98L242.007 373.77H254.813L275.756 436.459H262.686L258.45 422.943H258.463ZM241.324 413.083H255.412L248.514 390.997H248.264L241.324 413.083Z" fill="#402B25"/>
<path d="M294.275 411.416V436.473H281.762V373.783H303.346C310.452 373.783 316.012 375.408 320.025 378.671C324.038 381.934 326.045 386.472 326.045 392.299C326.045 395.506 325.195 398.293 323.495 400.632C321.795 402.971 319.314 404.862 316.068 406.29C319.746 407.383 322.394 409.204 324.01 411.753C325.627 414.302 326.435 417.467 326.435 421.22V425.828C326.435 427.579 326.672 429.414 327.145 431.319C327.619 433.223 328.427 434.638 329.57 435.562V436.473H316.681C315.538 435.548 314.8 434.036 314.479 431.907C314.145 429.778 313.992 427.733 313.992 425.744V421.304C313.992 418.181 313.142 415.744 311.442 414.008C309.742 412.271 307.331 411.402 304.224 411.402H294.289L294.275 411.416ZM294.275 401.725H303.137C306.648 401.725 309.268 400.982 310.968 399.484C312.682 397.999 313.532 395.786 313.532 392.859C313.532 389.932 312.668 387.705 310.94 386.01C309.212 384.315 306.676 383.475 303.332 383.475H294.247V401.725H294.275Z" fill="#402B25"/>
<path d="M203.996 518.238C202.854 517.328 202.129 515.955 201.809 514.106C201.321 511.417 201.948 505.227 203.676 495.563C208.26 470.927 213.053 451.039 218.042 435.885C222.055 423.84 225.162 415.857 227.392 411.907C227.754 411.291 228.325 410.675 229.12 410.016C230.415 408.742 231.753 408.196 233.133 408.35C234.916 408.616 236.198 410.086 236.965 412.761C237.048 413.182 236.825 413.784 236.296 414.554C234.442 414.722 232.311 418.084 229.872 424.652C224.02 439.89 217.652 463.742 210.74 496.221C209.863 500.619 209.333 504.569 209.152 508.042C208.943 510.661 209.319 512.062 210.267 512.272C211.967 512.118 214.795 509.905 218.739 505.661C223.49 500.619 228.451 495.045 233.634 488.952C236.463 485.661 237.787 485.759 237.606 489.246C237.466 491.277 235.083 494.877 230.457 500.059C226.862 504.849 222.766 509.695 218.167 514.583C215.241 517.594 212.413 519.219 209.709 519.457C207.438 519.667 205.515 519.261 203.968 518.252L203.996 518.238Z" fill="#FFA601"/>
<path d="M245.241 484.218C244.029 484.905 242.775 485.885 241.479 487.16C240.197 488.28 238.845 489.989 237.41 492.286C233.634 498.392 231.418 503.35 230.778 507.16C230.29 510.815 231.432 511.137 234.233 508.14C237.187 504.989 239.681 502.09 241.73 499.457C244.071 496.655 245.311 495.311 245.436 495.451C245.938 494.835 246.244 494.148 246.342 493.42C246.579 492.678 246.871 492.146 247.192 491.824C248.53 491.277 249.77 490.941 250.912 490.843C252.055 490.745 252.863 490.955 253.351 491.487C253.964 492.146 253.936 493.378 253.281 495.171C252.626 496.964 252.18 498.658 251.957 500.269C251.637 502.608 251.888 503.952 252.682 504.317C253.309 504.835 254.424 504.373 256.026 502.93C257.461 501.642 260.053 499.106 263.802 495.311C267.661 491.641 271.006 488.238 273.82 485.101C274.837 483.854 275.66 482.916 276.314 482.286C276.802 481.809 277.29 481.837 277.778 482.37C278.223 483.196 277.722 484.821 276.273 487.258C274.837 489.555 272.942 492.174 270.574 495.129C267.717 498.56 264.833 501.782 261.893 504.779C258.799 507.944 256.723 509.793 255.664 510.311C253.644 511.796 251.317 511.782 248.711 510.297C245.966 508.812 244.614 507.356 244.67 505.913C244.544 504.779 243.764 505.269 242.357 507.426C240.922 509.723 238.887 511.852 236.226 513.826C235.278 514.639 234.191 515.381 232.979 516.067C232.087 516.432 231.14 516.67 230.15 516.754L229.078 516.852C226.611 516.361 225.092 515.199 224.493 513.378C223.992 511.838 223.95 509.611 224.34 506.684C225.023 501.571 227.656 495.577 232.241 488.672C235.78 483.308 239.542 479.793 243.569 478.126C246.119 476.879 248.251 476.263 249.937 476.249C251.08 476.151 252.069 476.123 252.891 476.193C256.96 477.258 258.214 478.882 256.667 481.039C255.957 482.118 254.006 482.58 250.787 482.44C249.268 482.286 247.429 482.888 245.269 484.232L245.241 484.218Z" fill="#FFA601"/>
<path d="M291.477 431.361C291.881 433.63 291.435 436.907 290.153 441.207L284.914 461.361C287.129 460.577 289.052 459.835 290.696 459.106C292.341 458.378 293.372 458.07 293.776 458.168C294.055 458.14 294.18 458.784 294.152 460.087C293.776 461.852 292.243 463.364 289.54 464.611C287.436 465.661 285.332 466.655 283.242 467.566C282.601 470.213 282.029 472.356 281.528 473.994C280.929 476.361 280.315 478.784 279.702 481.291C278.518 485.871 277.375 490.227 276.261 494.359C275.16 498.35 274.449 501.081 274.101 502.552C273.864 504.303 273.989 505.451 274.477 505.983C275.829 507.44 280.497 504.065 288.495 495.843C292.243 492.048 295.88 487.454 299.405 482.09C299.586 481.782 299.879 481.684 300.283 481.796C301.245 481.992 301.147 483.728 300.004 487.006C297.859 492.538 292.578 499.429 284.147 507.692C280.12 511.516 277.027 513.603 274.867 513.939C273.167 514.093 271.384 513.673 269.558 512.692C268.639 512.202 267.9 511.404 267.357 510.297C266.535 509.079 266.144 507.818 266.186 506.516C266.409 504.905 266.994 502.048 267.97 497.916C269.084 493.784 270.227 489.499 271.384 485.059C271.997 482.552 272.666 480.185 273.39 477.958C273.989 475.591 274.561 473.462 275.104 471.529C273.153 472.426 271.425 473.238 269.934 473.938C268.29 474.667 267.329 475.045 267.036 475.073C265.183 475.241 264.458 474.373 264.862 472.454L265.308 469.162L268.875 467.762C271.272 466.683 273.947 465.563 276.915 464.429C279.674 454.372 281.89 446.319 283.548 440.255C285.248 433.91 286.377 430.199 286.948 429.134C287.492 428.224 287.91 427.748 288.188 427.72C290.041 427.552 291.142 428.742 291.505 431.305L291.477 431.361Z" fill="#FFA601"/>
<path d="M306.982 476.431C307.498 476.823 307.637 477.314 307.414 477.902C306.425 480.003 305.631 482.244 305.032 484.611C304.293 486.978 303.345 490.311 302.203 494.597C301.827 496.361 301.534 498.042 301.311 499.653C301.06 501.543 300.963 502.79 301.018 503.35C301.088 503.924 301.325 504.26 301.729 504.359C302.133 504.471 302.718 504.345 303.471 503.98C304.377 503.462 305.714 502.412 307.484 500.801C309.267 499.05 311.163 496.936 313.183 494.443C317.698 489.134 320.624 485.619 321.975 483.91C324.846 480.339 326.769 478.07 327.73 477.118C328.19 476.781 328.678 476.809 329.193 477.202C329.458 477.328 329.542 477.748 329.444 478.476C329.207 480.227 328.817 481.557 328.274 482.468C328.093 482.776 326.797 484.555 324.4 487.79C321.989 491.039 319.37 494.373 316.513 497.804C314.493 500.297 312.584 502.482 310.786 504.373C308.989 506.263 307.54 507.622 306.439 508.448C304.572 509.765 302.774 510.577 301.06 510.885C299.778 510.997 298.496 510.619 297.214 509.723C294.79 507.93 293.926 504.975 294.609 500.885C295.18 496.655 295.779 493.28 296.392 490.773C297.312 486.081 298.12 483.196 298.817 482.118L300.447 479.372C301.618 477.972 302.718 477.075 303.763 476.697C305.241 476.123 306.313 476.039 306.968 476.403L306.982 476.431ZM309.003 466.081C308.236 466.585 307.568 466.781 307.024 466.697C305.519 466.403 304.558 465.185 304.14 463.07C303.736 460.801 304.14 458.966 305.296 457.552C305.645 457.089 306.035 456.767 306.481 456.585C306.927 456.403 307.359 456.291 307.79 456.249L308.64 456.165C311.163 456.221 312.598 457.033 312.946 458.588C313.336 459.849 312.918 461.403 311.692 463.238C310.8 464.61 309.908 465.563 308.989 466.081H309.003Z" fill="#FFA601"/>
<path d="M347.156 500.885C344.299 499.12 343.003 496.795 343.254 493.882L345.679 477.439C345.902 475.829 345.525 475.437 344.578 476.249C343.24 477.818 339.868 483.602 334.448 493.602C329.919 502.229 327.132 506.669 326.129 506.907C322.492 507.818 320.527 506.767 320.235 503.77C320.137 503.49 320.151 502.846 320.291 501.823C321.085 496.991 322.116 492.425 323.398 488.14L326.854 476.585C328.846 472.229 331.271 471.501 334.099 474.414C334.016 475.002 332.58 479.456 329.766 487.776C328.804 490.745 328.135 492.608 327.745 493.364C328.999 491.375 330.281 489.092 331.619 486.529C333.472 483.196 335.242 479.932 336.942 476.753C338.642 473.574 339.673 471.599 340.049 470.857C341.317 468.728 343.324 467.888 346.083 468.364C348.256 468.882 349.998 470.03 351.308 471.781C352.144 472.86 352.409 474.568 352.088 476.893C351.768 479.232 351.28 482.369 350.611 486.333C350.012 489.708 349.706 492.033 349.664 493.336C349.608 494.778 350.277 495.591 351.656 495.745C352.088 495.703 352.688 495.437 353.454 494.932C356.101 492.958 359.237 490.087 362.832 486.291C365.298 483.616 367.667 481.165 369.938 478.938C370.677 478.728 370.983 478.994 370.886 479.722C370.844 480.016 370.718 480.465 370.495 481.053C369.032 484.652 366.538 488.546 363.013 492.762C358.024 498.546 354.165 501.571 351.461 501.809C350.04 501.935 348.605 501.641 347.156 500.899V500.885Z" fill="#FFA601"/>
<path d="M382.704 467.608C382.564 468.63 383.15 469.008 384.446 468.742C385.602 468.49 387.009 468.434 388.682 468.574C389.518 468.644 390.465 468.924 391.524 469.4C392.458 469.751 393.349 470.465 394.186 471.543C394.91 471.333 395.941 471.025 397.265 470.619L409.025 467.818C410.321 467.552 410.99 467.86 411.004 468.714C411.004 470.871 408.663 472.524 404.009 473.672C401.975 474.148 400.052 474.639 398.226 475.171C396.401 475.703 395.454 476.179 395.398 476.613C395.342 477.048 395.049 478.154 394.534 479.933C394.018 481.711 393.656 482.832 393.447 483.28C393.001 484.471 392.332 485.759 391.454 487.132C390.549 488.658 389.49 490.199 388.305 491.739C386.229 494.667 384.028 497.468 381.701 500.129C379.025 503.252 377.102 505.017 375.932 505.409C375.04 505.773 374.162 505.997 373.312 506.081C371.891 506.207 370.316 505.927 368.588 505.213C366.22 503.98 364.743 501.964 364.143 499.134C363.433 496.025 364.004 491.291 365.843 484.933C366.944 480.941 368.282 477.286 369.856 473.98C372.044 469.162 374.706 466.627 377.841 466.333C380.112 466.123 381.742 466.557 382.718 467.622L382.704 467.608ZM380.488 476.249C378.886 475.675 377.91 475.045 377.59 474.344C376.879 475.423 376.071 476.795 375.137 478.462C374.496 480.115 373.911 481.823 373.396 483.602C372.42 486.711 371.57 489.821 370.874 492.916C370.456 495.983 370.609 498.056 371.306 499.149C371.835 500.395 373.047 500.283 374.928 498.812C376.796 497.496 378.732 495.591 380.753 493.098C381.951 491.543 383.066 490.003 384.125 488.462C385.198 486.781 386.118 485.185 386.884 483.672C387.818 482.006 388.431 480.507 388.751 479.176C389.072 477.846 388.877 477.216 388.166 477.286C384.668 477.174 382.119 476.823 380.502 476.249H380.488Z" fill="#FFA601"/>
<path d="M182.858 549.387C211.102 541.488 239.514 533.995 268.358 528.574C295.418 523.49 322.771 520.507 350.249 519.191C368.768 518.294 387.314 518.084 405.86 518.196C409.832 518.224 409.846 512.006 405.86 511.992C374.648 511.796 343.38 512.552 312.334 515.871C285.176 518.77 258.325 523.756 231.753 530.129C214.809 534.191 197.99 538.728 181.213 543.42C177.395 544.485 179.012 550.479 182.858 549.401" fill="#FFA601"/>
</g>
<defs>
<clipPath id="clip0_691_5813">
<rect width="393" height="518" fill="white" transform="translate(18 32)"/>
</clipPath>
</defs>
</svg>
